# xmcd CD database file
# Copyright (C) 1993-1998 Ti Kan
#
# Track frame offsets:
#  187
#  12790
#  25615
#  40017
#  47047
#  59120
#  76250
#  88620
#  98355
#  116952
#  130437
#  145525
#  166922
#  182415
#  191055
#  202337
#  213252
#  224832
#  236212
#  251735
#  264700
#  276455
#  286907
#
# Disc length: 4007 seconds
#
# Revision: 1
# Processed by: cddbd v1.4b41PL1 Copyright (c) Steve Scherf et al.
# Submitted via: CDWizzard Release:4.32
#
DISCID=5d0fa517
DTITLE=Opera Stars from 1900 to 1960 - Met Stars in The New World, Disc 1
DTITLE=
DYEAR=1900
DGENRE=
TTITLE0=Shenandoah
TTITLE1=Song on Liberty
TTITLE2=Long, Long Ago
TTITLE3=Ching-a-ring Chaw
TTITLE4=Shall We Gather At the River That Old Time Religon
TTITLE5=Na Du-Na Du Du
TTITLE6=From the Land of Sky-Blue Water
TTITLE7=Oh! Susanna
TTITLE8=Jeanie With the Light Brown Hair
TTITLE9=Beautiful Dreamer
TTITLE10=Hard Times Come Again No More
TTITLE11=Oh, Glory
TTITLE12=Let Us Break Bread Together
TTITLE13=Heav'n, Heav'n
TTITLE14=Oh, what a Berautiful City
TTITLE15=Dixie
TTITLE16=Battle Hymn of the Republicv
TTITLE17=Marching through Georgia
TTITLE18=Just Before the Balttle, Mother
TTITLE19=Over There
TTITLE20=Tom sails Away
TTITLE21=In Flanders Field
TTITLE22=Rodger Young
EXTD=
EXTT0=
EXTT1=
EXTT2=
EXTT3=
EXTT4=
EXTT5=
EXTT6=
EXTT7=
EXTT8=
EXTT9=
EXTT10=
EXTT11=
EXTT12=
EXTT13=
EXTT14=
EXTT15=
EXTT16=
EXTT17=
EXTT18=
EXTT19=
EXTT20=
EXTT21=
EXTT22=
PLAYORDER=
